PathFileType	4	(X/Y/Z)	F:\Vicon\SynologyDrive\Marcel_BSc\Ayumi_25_09_2024\25-09-2024\conventional_dl_80kg03.trc
DataRate	CameraRate	NumFrames	NumMarkers	Units	OrigDataRate	OrigDataStartFrame	OrigNumFrames
200.0	200.0	185	1	mm	200.0	2451	2801	
Frame#	Time	RBAR			
		X1	Y1	Z1	
2451	12.245	214.30772	246.51595	-1703.0742
2452	12.25	214.30522	246.51587	-1703.0676
2453	12.255	214.29823	246.51981	-1703.0524
2454	12.26	214.29384	246.51752	-1703.0419
2455	12.265	214.28107	246.52194	-1703.0267
2456	12.27	214.27466	246.52635	-1703.0132
2457	12.275	214.27072	246.52353	-1702.9976
2458	12.28	214.27106	246.5218	-1702.9832
2459	12.285	214.25948	246.5211	-1702.9617
2460	12.29	214.24348	246.51523	-1702.9448
2461	12.295	214.24432	246.50923	-1702.9203
2462	12.3	214.23943	246.50349	-1702.9006
2463	12.305	214.233	246.506	-1702.8824
2464	12.31	214.22037	246.50858	-1702.8607
2465	12.315	214.22394	246.51068	-1702.8501
2466	12.32	214.21371	246.51797	-1702.8345
2467	12.325	214.21149	246.52278	-1702.8176
2468	12.33	214.20096	246.53201	-1702.8065
2469	12.335	214.19633	246.53267	-1702.7888
2470	12.34	214.19124	246.52849	-1702.7738
2471	12.345	214.19746	246.51561	-1702.77
2472	12.35	214.1915	246.51859	-1702.7638
2473	12.355	214.18452	246.51823	-1702.7603
2474	12.36	214.18587	246.52129	-1702.7664
2475	12.365	214.18773	246.522	-1702.7684
2476	12.37	214.17947	246.5237	-1702.7744
2477	12.375	214.17818	246.52147	-1702.7834
2478	12.38	214.17729	246.51476	-1702.7908
2479	12.385	214.1705	246.50864	-1702.7971
2480	12.39	214.17181	246.51175	-1702.8103
2481	12.395	214.15269	246.51898	-1702.818
2482	12.4	214.15651	246.52321	-1702.8311
2483	12.405	214.15125	246.51846	-1702.8445
2484	12.41	214.15451	246.51242	-1702.8622
2485	12.415	214.14757	246.51686	-1702.8746
2486	12.42	214.14819	246.50673	-1702.891
2487	12.425	214.14464	246.51181	-1702.9075
2488	12.43	214.14201	246.51794	-1702.9257
2489	12.435	214.14267	246.51173	-1702.9412
2490	12.44	214.14532	246.51306	-1702.9657
2491	12.445	214.13687	246.5155	-1702.9799
2492	12.45	214.13524	246.52245	-1702.9948
2493	12.455	214.14211	246.50552	-1703.0112
2494	12.46	214.14285	246.508	-1703.0216
2495	12.465	214.14949	246.50859	-1703.0428
2496	12.47	214.15147	246.50574	-1703.051
2497	12.475	214.14632	246.50368	-1703.0642
2498	12.48	214.15077	246.50304	-1703.0752
2499	12.485	214.15926	246.50871	-1703.0831
2500	12.49	214.16202	246.50697	-1703.0911
2501	12.495	214.16431	246.51176	-1703.0985
2502	12.5	214.17032	246.50854	-1703.1029
2503	12.505	214.17062	246.50806	-1703.1088
2504	12.51	214.1721	246.51131	-1703.1099
2505	12.515	214.17548	246.51659	-1703.1108
2506	12.52	214.1786	246.51108	-1703.1129
2507	12.525	214.1825	246.51062	-1703.1129
2508	12.53	214.18991	246.50435	-1703.1072
2509	12.535	214.18785	246.49954	-1703.1022
2510	12.54	214.19307	246.50931	-1703.1031
2511	12.545	214.1971	246.50464	-1703.0913
2512	12.55	214.20808	246.51143	-1703.0865
2513	12.555	214.21216	246.51508	-1703.0751
2514	12.56	214.21968	246.51399	-1703.0657
2515	12.565	214.22263	246.51596	-1703.0586
2516	12.57	214.23463	246.51732	-1703.0414
2517	12.575	214.23151	246.51744	-1703.0354
2518	12.58	214.23399	246.51834	-1703.017
2519	12.585	214.24773	246.50818	-1703.0059
2520	12.59	214.24359	246.51575	-1702.9877
2521	12.595	214.25731	246.52068	-1702.973
2522	12.6	214.26266	246.51369	-1702.9617
2523	12.605	214.2728	246.51874	-1702.9443
2524	12.61	214.27441	246.52139	-1702.9285
2525	12.615	214.28156	246.51686	-1702.9114
2526	12.62	214.29742	246.50975	-1702.8986
2527	12.625	214.30745	246.51141	-1702.8904
2528	12.63	214.31158	246.5125	-1702.8765
2529	12.635	214.30545	246.51501	-1702.8622
2530	12.64	214.31345	246.51559	-1702.8441
2531	12.645	214.31863	246.51607	-1702.8357
2532	12.65	214.33055	246.51878	-1702.8236
2533	12.655	214.34047	246.51923	-1702.8212
2534	12.66	214.33868	246.52693	-1702.8148
2535	12.665	214.34669	246.51994	-1702.8033
2536	12.67	214.34708	246.52322	-1702.7976
2537	12.675	214.35081	246.51944	-1702.7972
2538	12.68	214.37236	246.5163	-1702.7963
2539	12.685	214.38466	246.5096	-1702.7975
2540	12.69	214.39281	246.50578	-1702.7961
2541	12.695	214.39481	246.51172	-1702.8016
2542	12.7	214.39352	246.51242	-1702.8082
2543	12.705	214.38768	246.51537	-1702.8148
2544	12.71	214.38499	246.50807	-1702.8212
2545	12.715	214.39305	246.5071	-1702.8324
2546	12.72	214.39777	246.5027	-1702.8413
2547	12.725	214.40895	246.49763	-1702.8578
2548	12.73	214.41177	246.49783	-1702.8661
2549	12.735	214.42047	246.50072	-1702.8926
2550	12.74	214.42885	246.49969	-1702.9012
2551	12.745	214.44765	246.50423	-1702.9181
2552	12.75	214.44942	246.50531	-1702.9438
2553	12.755	214.45996	246.50848	-1702.9589
2554	12.76	214.45802	246.51674	-1702.9745
2555	12.765	214.46886	246.51915	-1702.9882
2556	12.77	214.47887	246.51971	-1703
2557	12.775	214.49506	246.52211	-1703.0137
2558	12.78	214.50368	246.51779	-1703.0194
2559	12.785	214.51823	246.51715	-1703.0343
2560	12.79	214.52357	246.51427	-1703.0433
2561	12.795	214.53503	246.51404	-1703.0553
2562	12.8	214.54146	246.51334	-1703.0604
2563	12.805	214.54829	246.50395	-1703.0629
2564	12.81	214.5549	246.50758	-1703.0699
2565	12.815	214.55844	246.50555	-1703.08
2566	12.82	214.56584	246.50806	-1703.0825
2567	12.825	214.58083	246.50298	-1703.0841
2568	12.83	214.58771	246.50609	-1703.0787
2569	12.835	214.60052	246.5106	-1703.0823
2570	12.84	214.6106	246.50844	-1703.0826
2571	12.845	214.62537	246.50742	-1703.0818
2572	12.85	214.63719	246.50385	-1703.0757
2573	12.855	214.64394	246.50879	-1703.068
2574	12.86	214.65662	246.51222	-1703.0687
2575	12.865	214.66364	246.51102	-1703.0614
2576	12.87	214.67404	246.51195	-1703.063
2577	12.875	214.68562	246.51622	-1703.045
2578	12.88	214.69414	246.51953	-1703.0374
2579	12.885	214.7124	246.50519	-1703.0255
2580	12.89	214.73036	246.50851	-1703.0166
2581	12.895	214.73863	246.50464	-1703.01
2582	12.9	214.75633	246.49435	-1702.9912
2583	12.905	214.7644	246.49728	-1702.9835
2584	12.91	214.77649	246.491	-1702.9711
2585	12.915	214.79091	246.48727	-1702.9574
2586	12.92	214.80663	246.48775	-1702.9406
2587	12.925	214.81316	246.48602	-1702.9307
2588	12.93	214.83336	246.48718	-1702.9177
2589	12.935	214.84483	246.48619	-1702.9049
2590	12.94	214.86469	246.48534	-1702.8964
2591	12.945	214.88063	246.47311	-1702.8821
2592	12.95	214.88457	246.47334	-1702.8748
2593	12.955	214.89197	246.47754	-1702.8701
2594	12.96	214.89836	246.4908	-1702.8597
2595	12.965	214.9061	246.49084	-1702.8459
2596	12.97	214.92162	246.49277	-1702.8412
2597	12.975	214.93938	246.48875	-1702.8308
2598	12.98	214.95216	246.48808	-1702.8258
2599	12.985	214.95467	246.4901	-1702.8174
2600	12.99	214.9644	246.48665	-1702.8207
2601	12.995	214.97241	246.48892	-1702.8199
2602	13	214.98843	246.47955	-1702.8236
2603	13.005	214.99138	246.48373	-1702.8243
2604	13.01	215.0063	246.4763	-1702.8306
2605	13.015	215.00383	246.49077	-1702.8386
2606	13.02	215.00931	246.48367	-1702.8525
2607	13.025	215.03635	246.48068	-1702.8508
2608	13.03	215.04694	246.47784	-1702.8611
2609	13.035	215.06258	246.47585	-1702.8693
2610	13.04	215.07234	246.4761	-1702.8805
2611	13.045	215.07962	246.47046	-1702.8983
2612	13.05	215.0907	246.47345	-1702.9121
2613	13.055	215.10501	246.47668	-1702.9183
2614	13.06	215.11391	246.48105	-1702.9387
2615	13.065	215.12981	246.47699	-1702.9506
2616	13.07	215.14473	246.47762	-1702.9619
2617	13.075	215.1508	246.49046	-1702.9827
2618	13.08	215.16371	246.4848	-1702.9867
2619	13.085	215.16579	246.4919	-1702.9971
2620	13.09	215.17531	246.48837	-1703.0039
2621	13.095	215.1825	246.48758	-1703.0197
2622	13.1	215.19803	246.48659	-1703.0306
2623	13.105	215.20885	246.48309	-1703.04
2624	13.11	215.21988	246.48486	-1703.0566
2625	13.115	215.23227	246.4866	-1703.063
2626	13.12	215.23953	246.4852	-1703.0692
2627	13.125	215.25797	246.4881	-1703.0767
2628	13.13	215.26031	246.48485	-1703.0796
2629	13.135	215.26747	246.48723	-1703.0902
2630	13.14	215.27847	246.48763	-1703.0864
2631	13.145	215.28645	246.48779	-1703.0903
2632	13.15	215.29486	246.49118	-1703.0894
2633	13.155	215.30823	246.48793	-1703.0878
2634	13.16	215.31435	246.48714	-1703.0961
2635	13.165	215.32401	246.48987	-1703.0924
